<svg id="Camada_1" data-name="Camada 1" xmlns="http://www.w3.org/2000/svg" xmlns:xlink="http://www.w3.org/1999/xlink" viewBox="0 0 432.5 103.41"><defs><style>.cls-1,.cls-3,.cls-5{fill:none;}.cls-2{fill:#fff;}.cls-3{stroke:#fff;}.cls-3,.cls-5{stroke-miterlimit:10;stroke-width:3px;}.cls-4{clip-path:url(#clip-path);}.cls-5{stroke:#211915;}</style><clipPath id="clip-path"><rect class="cls-1" width="448.43" height="103.41"/></clipPath></defs><rect width="241.46" height="103.41"/><polygon class="cls-2" points="17.43 24.31 24.94 24.31 40.03 59.73 54.84 24.31 62.38 24.31 62.38 78.65 54.41 78.65 54.41 44.76 54.23 44.76 43.21 70.86 36.56 70.86 25.55 44.76 25.4 44.76 25.4 78.65 17.43 78.65 17.43 24.31"/><polygon class="cls-3" points="17.43 24.31 24.94 24.31 40.03 59.73 54.84 24.31 62.38 24.31 62.38 78.65 54.41 78.65 54.41 44.76 54.23 44.76 43.21 70.86 36.56 70.86 25.55 44.76 25.4 44.76 25.4 78.65 17.43 78.65 17.43 24.31"/><path class="cls-2" d="M74.83,24.31h7.52v7.75H74.83Zm0,15.65h7.52V78.65H74.83Z"/><path class="cls-3" d="M74.83,24.31h7.52v7.75H74.83Zm0,15.65h7.52V78.65H74.83Z"/><g class="cls-4"><path class="cls-2" d="M92.91,40h7.52v4.1h.15a11.93,11.93,0,0,1,9.73-4.58,12.63,12.63,0,0,1,8.52,3.39q3.83,3.43,4,10.07V78.65h-7.52V55.59q0-4.06-2.1-6.2a7,7,0,0,0-5.3-2.16,7.14,7.14,0,0,0-5.35,2.16,8.4,8.4,0,0,0-2.13,6.2V78.65H92.91Z"/><path class="cls-3" d="M92.91,40h7.52v4.1h.15a11.93,11.93,0,0,1,9.73-4.58,12.63,12.63,0,0,1,8.52,3.39q3.83,3.43,4,10.07V78.65h-7.52V55.59q0-4.06-2.1-6.2a7,7,0,0,0-5.3-2.16,7.14,7.14,0,0,0-5.35,2.16,8.4,8.4,0,0,0-2.13,6.2V78.65H92.91Z"/><path class="cls-2" d="M133.91,40h7.52V63a8.44,8.44,0,0,0,2.13,6.12,7.06,7.06,0,0,0,5.35,2.2,6.92,6.92,0,0,0,5.3-2.2,8.51,8.51,0,0,0,2.1-6.12V40h7.52V78.65h-7.52V74.52h-.15a11.9,11.9,0,0,1-9.7,4.58,12.43,12.43,0,0,1-8.4-3.5q-4.08-3.34-4.15-9.89Z"/><path class="cls-3" d="M133.91,40h7.52V63a8.44,8.44,0,0,0,2.13,6.12,7.06,7.06,0,0,0,5.35,2.2,6.92,6.92,0,0,0,5.3-2.2,8.51,8.51,0,0,0,2.1-6.12V40h7.52V78.65h-7.52V74.52h-.15a11.9,11.9,0,0,1-9.7,4.58,12.43,12.43,0,0,1-8.4-3.5q-4.08-3.34-4.15-9.89Z"/><path class="cls-2" d="M175.36,28.19h7.52V40h5.49v6h-5.49V68.48c0,2,.84,2.92,2.67,2.87h2.82v7.3h-3.93A8.75,8.75,0,0,1,178,76.12c-1.73-1.61-2.59-4-2.59-7V45.92h-3.78V40h3.78Z"/><path class="cls-3" d="M175.36,28.19h7.52V40h5.49v6h-5.49V68.48c0,2,.84,2.92,2.67,2.87h2.82v7.3h-3.93A8.75,8.75,0,0,1,178,76.12c-1.73-1.61-2.59-4-2.59-7V45.92h-3.78V40h3.78Z"/><path class="cls-2" d="M194.25,59.27a34.86,34.86,0,0,1,1-9.41,13.7,13.7,0,0,1,3.1-5.41A14.2,14.2,0,0,1,202.66,41a15.73,15.73,0,0,1,7.05-1.52A15.9,15.9,0,0,1,216.89,41a13.56,13.56,0,0,1,4.19,3.46,12.33,12.33,0,0,1,3.17,5.41,38,38,0,0,1,.9,9.39,36.52,36.52,0,0,1-.91,9.32,13.25,13.25,0,0,1-3.17,5.55,12,12,0,0,1-1.77,1.68,8.09,8.09,0,0,1-2.42,1.6,14.62,14.62,0,0,1-7.18,1.68,15.42,15.42,0,0,1-11.37-5,15,15,0,0,1-3.1-5.55,33.87,33.87,0,0,1-1-9.32m23.37.08a36.2,36.2,0,0,0-.36-6.06,7.22,7.22,0,0,0-1.48-3.22A5.67,5.67,0,0,0,213.32,48a8.58,8.58,0,0,0-7.17,0,6.71,6.71,0,0,0-2.53,2,9.23,9.23,0,0,0-1.41,3.22,29.58,29.58,0,0,0-.43,6,28.85,28.85,0,0,0,.43,5.91,10.09,10.09,0,0,0,1.41,3.37,9.4,9.4,0,0,0,2.53,2,7.75,7.75,0,0,0,3.55.82,7.64,7.64,0,0,0,3.62-.82,7.3,7.3,0,0,0,2.46-2,7.85,7.85,0,0,0,1.48-3.37,34,34,0,0,0,.36-5.83"/><path class="cls-3" d="M194.25,59.27a34.86,34.86,0,0,1,1-9.41,13.7,13.7,0,0,1,3.1-5.41A14.2,14.2,0,0,1,202.66,41a15.73,15.73,0,0,1,7.05-1.52A15.9,15.9,0,0,1,216.89,41a13.56,13.56,0,0,1,4.19,3.46,12.33,12.33,0,0,1,3.17,5.41,38,38,0,0,1,.9,9.39,36.52,36.52,0,0,1-.91,9.32,13.25,13.25,0,0,1-3.17,5.55,12,12,0,0,1-1.77,1.68,8.09,8.09,0,0,1-2.42,1.6,14.62,14.62,0,0,1-7.18,1.68,15.42,15.42,0,0,1-11.37-5,15,15,0,0,1-3.1-5.55A33.87,33.87,0,0,1,194.25,59.27Zm23.37.08a36.2,36.2,0,0,0-.36-6.06,7.22,7.22,0,0,0-1.48-3.22A5.67,5.67,0,0,0,213.32,48a8.58,8.58,0,0,0-7.17,0,6.71,6.71,0,0,0-2.53,2,9.23,9.23,0,0,0-1.41,3.22,29.58,29.58,0,0,0-.43,6,28.85,28.85,0,0,0,.43,5.91,10.09,10.09,0,0,0,1.41,3.37,9.4,9.4,0,0,0,2.53,2,7.75,7.75,0,0,0,3.55.82,7.64,7.64,0,0,0,3.62-.82,7.3,7.3,0,0,0,2.46-2,7.85,7.85,0,0,0,1.48-3.37A34,34,0,0,0,217.62,59.35Z"/><polygon points="258.29 24.31 265.8 24.31 289.64 62.94 289.78 62.94 289.78 24.31 297.75 24.31 297.75 78.65 290.2 78.65 266.4 40.02 266.25 40.02 266.25 78.65 258.29 78.65 258.29 24.31"/><polygon class="cls-5" points="258.29 24.31 265.8 24.31 289.64 62.94 289.78 62.94 289.78 24.31 297.75 24.31 297.75 78.65 290.2 78.65 266.4 40.02 266.25 40.02 266.25 78.65 258.29 78.65 258.29 24.31"/><path d="M315.49,62.25q0,4.66,2.6,7.09a8.54,8.54,0,0,0,6.36,2.46,11.1,11.1,0,0,0,8.2-3.77l5.46,4.81q-5.75,6.33-13.5,6.26a19.16,19.16,0,0,1-5.78-.89,14,14,0,0,1-2.74-1.31,12.67,12.67,0,0,1-2.63-1.75,15.38,15.38,0,0,1-3.87-6A24.52,24.52,0,0,1,308,59.42a27.67,27.67,0,0,1,1.41-9.54A16.63,16.63,0,0,1,313,43.77a13.32,13.32,0,0,1,5-3.28,15.5,15.5,0,0,1,16.28,3.35q4.52,4.36,4.58,12v6.4Zm15.85-6.4c-.1-3-.88-5.31-2.35-6.86a8.14,8.14,0,0,0-11.15,0c-1.42,1.55-2.2,3.83-2.35,6.86Z"/><path class="cls-5" d="M315.49,62.25q0,4.66,2.6,7.09a8.54,8.54,0,0,0,6.36,2.46,11.1,11.1,0,0,0,8.2-3.77l5.46,4.81q-5.75,6.33-13.5,6.26a19.16,19.16,0,0,1-5.78-.89,14,14,0,0,1-2.74-1.31,12.67,12.67,0,0,1-2.63-1.75,15.38,15.38,0,0,1-3.87-6A24.52,24.52,0,0,1,308,59.42a27.67,27.67,0,0,1,1.41-9.54A16.63,16.63,0,0,1,313,43.77a13.32,13.32,0,0,1,5-3.28,15.5,15.5,0,0,1,16.28,3.35q4.52,4.36,4.58,12v6.4Zm15.85-6.4c-.1-3-.88-5.31-2.35-6.86a8.14,8.14,0,0,0-11.15,0c-1.42,1.55-2.2,3.83-2.35,6.86Z"/><polygon points="369.88 51.55 369.73 51.55 361.89 78.65 355.25 78.65 343.27 39.96 351.25 39.96 358.43 67.1 358.57 67.1 367.1 39.96 372.55 39.96 381.06 67.1 381.21 67.1 388.36 39.96 396.34 39.96 384.39 78.65 377.71 78.65 369.88 51.55"/><polygon class="cls-5" points="369.88 51.55 369.73 51.55 361.89 78.65 355.25 78.65 343.27 39.96 351.25 39.96 358.43 67.1 358.57 67.1 367.1 39.96 372.55 39.96 381.06 67.1 381.21 67.1 388.36 39.96 396.34 39.96 384.39 78.65 377.71 78.65 369.88 51.55"/><path d="M404.22,66.84a15.46,15.46,0,0,0,11.87,5,9.83,9.83,0,0,0,5.33-1.31,4.1,4.1,0,0,0,2.06-3.65,3.25,3.25,0,0,0-1.23-2.91,6.37,6.37,0,0,0-3.37-.93l-6.65-.6a12.44,12.44,0,0,1-7.71-3.28,10.13,10.13,0,0,1-3.11-7.71q.07-6,4.09-8.95a15.82,15.82,0,0,1,9.9-3,29.75,29.75,0,0,1,4.66.33,22.48,22.48,0,0,1,3.86,1,22,22,0,0,1,6.22,3.91l-4.67,5.62a23.06,23.06,0,0,0-4.59-2.67,14.92,14.92,0,0,0-5.5-.94q-3.56,0-5,1.31a4.27,4.27,0,0,0-1.49,3.36,2.64,2.64,0,0,0,1.13,2.27,6.39,6.39,0,0,0,3.83,1.38l6.22.49q5.86.45,8.47,3.66A12.64,12.64,0,0,1,431,67.19a10.17,10.17,0,0,1-4.44,8.7,18.84,18.84,0,0,1-11.09,3.21q-9.17,0-16.5-6.93Z"/><path class="cls-5" d="M404.22,66.84a15.46,15.46,0,0,0,11.87,5,9.83,9.83,0,0,0,5.33-1.31,4.1,4.1,0,0,0,2.06-3.65,3.25,3.25,0,0,0-1.23-2.91,6.37,6.37,0,0,0-3.37-.93l-6.65-.6a12.44,12.44,0,0,1-7.71-3.28,10.13,10.13,0,0,1-3.11-7.71q.07-6,4.09-8.95a15.82,15.82,0,0,1,9.9-3,29.75,29.75,0,0,1,4.66.33,22.48,22.48,0,0,1,3.86,1,22,22,0,0,1,6.22,3.91l-4.67,5.62a23.06,23.06,0,0,0-4.59-2.67,14.92,14.92,0,0,0-5.5-.94q-3.56,0-5,1.31a4.27,4.27,0,0,0-1.49,3.36,2.64,2.64,0,0,0,1.13,2.27,6.39,6.39,0,0,0,3.83,1.38l6.22.49q5.86.45,8.47,3.66A12.64,12.64,0,0,1,431,67.19a10.17,10.17,0,0,1-4.44,8.7,18.84,18.84,0,0,1-11.09,3.21q-9.17,0-16.5-6.93Z"/></g></svg>